<svg xmlns="http://www.w3.org/2000/svg" xmlns:xlink="http://www.w3.org/1999/xlink" id="Layer_1" width="144" height="144" x="0" y="0" enable-background="new 0 0 144 144" version="1.1" viewBox="0 0 144 144" xml:space="preserve"><g><path fill="#DBDBDB" d="M72,53.188c-10.373,0-18.812,8.439-18.812,18.812c0,10.372,8.439,18.812,18.812,18.812 S90.811,82.372,90.811,72C90.811,61.627,82.372,53.188,72,53.188z"/><path fill="#DBDBDB" d="M72,40.48c-17.38,0-31.52,14.14-31.52,31.52S54.62,103.52,72,103.52c17.38,0,31.52-14.14,31.52-31.52 S89.38,40.48,72,40.48z M72,96.466c-13.49,0-24.466-10.976-24.466-24.466S58.509,47.535,72,47.535 c13.49,0,24.465,10.975,24.465,24.465S85.489,96.466,72,96.466z"/><path fill="#DBDBDB" d="M72,25.76c-25.497,0-46.24,20.743-46.24,46.24c0,25.497,20.743,46.239,46.24,46.239 c25.497,0,46.24-20.742,46.24-46.239C118.239,46.503,97.496,25.76,72,25.76z M72,109.174c-20.498,0-37.173-16.676-37.173-37.174 c0-20.498,16.676-37.174,37.173-37.174S109.173,51.502,109.173,72C109.173,92.498,92.497,109.174,72,109.174z"/><path fill="#DBDBDB" d="M72,3C33.892,3,3,33.893,3,72s30.893,69,69,69c38.108,0,69-30.893,69-69S110.107,3,72,3z M72,123.894 c-28.614,0-51.894-23.279-51.894-51.894S43.385,20.106,72,20.106c28.614,0,51.894,23.279,51.894,51.894S100.613,123.894,72,123.894 z"/></g><g><defs><path id="SVGID_1_" d="M3,72c0,38.107,30.892,69,69,69c38.107,0,69-30.893,69-69c0-38.108-30.893-69-69-69C33.892,3,3,33.892,3,72"/></defs><clipPath id="SVGID_2_"><use overflow="visible" xlink:href="#SVGID_1_"/></clipPath><g clip-path="url(#SVGID_2_)"><rect width="34.804" height="90.172" x="54.598" y="70.646" fill="#7B7B7B"/></g><g clip-path="url(#SVGID_2_)"><rect width="24.184" height="82.886" x="26.37" y="98.664" fill="#7B7B7B"/></g><g clip-path="url(#SVGID_2_)"><rect width="4.461" height="6.55" x="31.801" y="105.346" fill="#DBDBDB"/></g><g clip-path="url(#SVGID_2_)"><rect width="4.461" height="6.55" x="41.308" y="105.346" fill="#DBDBDB"/></g><g clip-path="url(#SVGID_2_)"><rect width="4.461" height="6.55" x="31.801" y="118.092" fill="#DBDBDB"/></g><g clip-path="url(#SVGID_2_)"><rect width="4.461" height="6.55" x="41.308" y="118.092" fill="#DBDBDB"/></g><g clip-path="url(#SVGID_2_)"><rect width="24.185" height="82.886" x="93.445" y="84.261" fill="#7B7B7B"/></g><g clip-path="url(#SVGID_2_)"><rect width="5.979" height="8.717" x="61.914" y="98.647" fill="#DBDBDB"/></g><g clip-path="url(#SVGID_2_)"><rect width="5.979" height="8.717" x="75.107" y="98.647" fill="#DBDBDB"/></g><g clip-path="url(#SVGID_2_)"><rect width="5.979" height="8.716" x="61.914" y="117.814" fill="#DBDBDB"/></g><g clip-path="url(#SVGID_2_)"><rect width="5.979" height="8.716" x="75.107" y="117.814" fill="#DBDBDB"/></g><g clip-path="url(#SVGID_2_)"><rect width="5.979" height="8.716" x="61.914" y="79.481" fill="#DBDBDB"/></g><g clip-path="url(#SVGID_2_)"><rect width="5.979" height="8.716" x="75.107" y="79.481" fill="#DBDBDB"/></g><g clip-path="url(#SVGID_2_)"><rect width="4.461" height="6.55" x="98.554" y="105.346" fill="#DBDBDB"/></g><g clip-path="url(#SVGID_2_)"><rect width="4.461" height="6.55" x="108.061" y="105.346" fill="#DBDBDB"/></g><g clip-path="url(#SVGID_2_)"><rect width="4.461" height="6.549" x="98.554" y="92.058" fill="#DBDBDB"/></g><g clip-path="url(#SVGID_2_)"><rect width="4.461" height="6.549" x="108.061" y="92.058" fill="#DBDBDB"/></g><g clip-path="url(#SVGID_2_)"><rect width="4.461" height="6.55" x="98.554" y="118.092" fill="#DBDBDB"/></g><g clip-path="url(#SVGID_2_)"><rect width="4.461" height="6.55" x="108.061" y="118.092" fill="#DBDBDB"/></g></g></svg>